# xmcd
#
# Track frame offsets:
#	150
#	16178
#	34014
#	47281
#	63950
#	79705
#
# Disc length: 1268 seconds
# Revision: 1
# Processed by: cddbd v1.5.2PL0 Copyright (c) Steve Scherf et al.
# Submitted via: dBpowerAMP V12.0
#
DISCID=3704f206
DTITLE=Parker Welling - Heart Right Here
DYEAR=2010
DGENRE=Country
TTITLE0=Firecrackers And Matches
TTITLE1=Homecoming
TTITLE2=Still On Your Mind
TTITLE3=Devil
TTITLE4=Feels Like
TTITLE5=Heart Right Here
EXTD=
EXTT0=
EXTT1=
EXTT2=
EXTT3=
EXTT4=
EXTT5=
PLAYORDER=
